<?xml version="1.0" encoding="utf-8"?>
<!-- Generated by IcoMoon.io -->
<svg version="1.1" xmlns="http://www.w3.org/2000/svg" xmlns:xlink="http://www.w3.org/1999/xlink" width="1264" height="64" viewBox="0 0 1264 64">
<svg id="icon-antenna" width="64" height="64" viewBox="0 0 64 64" x="0" y="0">
<path fill="#2e2f42" d="M61.546 44.196l-16.886-17.010 1.874-9.23c0.484 0.188 0.998 0.288 1.516 0.292h0.012c2.384 0.028 4.34-1.882 4.368-4.266s-1.882-4.34-4.266-4.368c-2.384-0.028-4.34 1.882-4.368 4.266-0.006 0.51 0.078 1.018 0.25 1.498l-9.92 1.21-16.182-16.266c-0.198-0.202-0.47-0.318-0.754-0.32-0.28 0.002-0.548 0.112-0.746 0.31l-3.026 3.008c-0.416 0.416-0.416 1.092 0 1.508l1.628 1.652c-6.306 11.596-4.258 25.956 5.038 35.326 0.086 0.082 0.184 0.148 0.292 0.196-0.068 0.36-0.102 0.728-0.104 1.094v12.374h-12.8c-2.944 0.004-5.33 2.39-5.334 5.334v2.134c0 0.59 0.478 1.066 1.066 1.066h49.066c0.59 0 1.066-0.478 1.066-1.066v-2.134c-0.004-2.944-2.39-5.33-5.334-5.334h-12.8v-5.484c2.006 0.42 4.048 0.634 6.098 0.64 4.916-0.006 9.754-1.23 14.080-3.566l1.636 1.646c0.198 0.202 0.47 0.318 0.754 0.32 0.28-0.002 0.548-0.112 0.746-0.31l3.026-3.008c0.416-0.416 0.416-1.092 0-1.508zM46.56 12.466c0.836-0.83 2.186-0.828 3.018 0.008s0.828 2.186-0.008 3.016c-0.4 0.398-0.94 0.62-1.504 0.62h-0.006c-1.178-0.006-2.128-0.966-2.122-2.144 0.004-0.564 0.23-1.104 0.628-1.502h-0.004zM44.048 19.476l-1.196 5.892-2.35-2.364 3.548-3.526zM42.838 17.672l-3.84 3.818-2.97-2.986 6.81-0.83zM48.008 57.6c1.768 0 3.2 1.432 3.2 3.2v1.066h-46.934v-1.066c0-1.768 1.432-3.2 3.2-3.2h40.534zM33.074 53.334v2.134h-10.666v-2.134h10.666zM22.408 51.2v-8.106c0-2.588 2.392-4.694 5.334-4.694s5.334 2.106 5.334 4.694v8.106h-10.666zM35.208 47.808v-4.714c0-3.764-3.35-6.826-7.466-6.826-2.662-0.040-5.152 1.314-6.562 3.572-8.116-8.548-9.942-21.29-4.558-31.774l37.204 37.416c-5.744 2.922-12.33 3.746-18.618 2.326zM57.786 46.44l-42.114-42.362 1.51-1.504 15.87 15.96c0.008 0 0.012 0.014 0.020 0.020l26.23 26.382-1.514 1.504z"></path>
<path fill="#4d5ae5" d="M27.752 40.534h-0.010c-1.768-0.002-3.202 1.428-3.204 3.196s1.428 3.202 3.196 3.204h0.010c1.768 0.002 3.202-1.428 3.204-3.196s-1.428-3.202-3.196-3.204zM28.498 44.49c-0.2 0.2-0.472 0.312-0.756 0.31-0.59-0.004-1.064-0.484-1.062-1.072 0.002-0.282 0.114-0.552 0.314-0.75s0.466-0.308 0.746-0.31c0.59 0.004 1.064 0.484 1.062 1.072-0.002 0.282-0.114 0.552-0.314 0.75h0.010z"></path>
</svg>
<svg id="icon-astronaut" width="64" height="64" viewBox="0 0 64 64" x="80" y="0">
<path fill="#4d5ae5" d="M63.948 9.048c-0.126-0.386-0.458-0.666-0.86-0.726l-3.82-0.556-1.71-3.462c-0.358-0.73-1.554-0.73-1.912 0l-1.71 3.462-3.82 0.556c-0.402 0.058-0.734 0.34-0.862 0.726-0.124 0.386-0.022 0.81 0.27 1.094l2.766 2.696-0.652 3.806c-0.068 0.4 0.096 0.804 0.424 1.044 0.332 0.242 0.764 0.27 1.124 0.080l3.418-1.798 3.418 1.798c0.156 0.082 0.328 0.122 0.498 0.122 0.22 0 0.442-0.068 0.628-0.204 0.328-0.238 0.492-0.644 0.424-1.044l-0.652-3.806 2.766-2.696c0.29-0.284 0.394-0.708 0.27-1.094zM59.022 11.702c-0.25 0.244-0.366 0.598-0.306 0.944l0.382 2.228-2-1.052c-0.156-0.082-0.326-0.122-0.498-0.122s-0.34 0.040-0.498 0.122l-2.002 1.052 0.382-2.228c0.060-0.346-0.056-0.698-0.306-0.944l-1.62-1.578 2.238-0.326c0.348-0.050 0.648-0.268 0.804-0.584l1-2.026 1 2.026c0.156 0.314 0.456 0.534 0.804 0.584l2.238 0.326-1.618 1.578z"></path>
<path fill="#4d5ae5" d="M52.266 41.044h-2.134v2.134h2.134v-2.134z"></path>
<path fill="#4d5ae5" d="M52.266 45.312h-2.134v2.134h2.134v-2.134z"></path>
<path fill="#4d5ae5" d="M54.4 43.178h-2.134v2.134h2.134v-2.134z"></path>
<path fill="#4d5ae5" d="M50.134 43.178h-2.134v2.134h2.134v-2.134z"></path>
<path fill="#4d5ae5" d="M44.8 52.778h-2.134v2.134h2.134v-2.134z"></path>
<path fill="#4d5ae5" d="M44.8 57.044h-2.134v2.134h2.134v-2.134z"></path>
<path fill="#4d5ae5" d="M46.934 54.912h-2.134v2.134h2.134v-2.134z"></path>
<path fill="#4d5ae5" d="M42.666 54.912h-2.134v2.134h2.134v-2.134z"></path>
<path fill="#4d5ae5" d="M32 48.512h-2.134v2.134h2.134v-2.134z"></path>
<path fill="#4d5ae5" d="M32 52.778h-2.134v2.134h2.134v-2.134z"></path>
<path fill="#4d5ae5" d="M34.134 50.644h-2.134v2.134h2.134v-2.134z"></path>
<path fill="#4d5ae5" d="M29.866 50.644h-2.134v2.134h2.134v-2.134z"></path>
<path fill="#4d5ae5" d="M11.734 12.244h-2.134v2.134h2.134v-2.134z"></path>
<path fill="#4d5ae5" d="M11.734 16.51h-2.134v2.134h2.134v-2.134z"></path>
<path fill="#4d5ae5" d="M13.866 14.378h-2.134v2.134h2.134v-2.134z"></path>
<path fill="#4d5ae5" d="M9.6 14.378h-2.134v2.134h2.134v-2.134z"></path>
<path fill="#2e2f42" d="M49.43 28.318c-0.574-0.776-1.418-1.274-2.376-1.41-0.962-0.136-1.912 0.116-2.68 0.704l-2.504 1.92-3.796 2.834-2.716-1.082c4.842-2.172 8.228-7.016 8.228-12.64 0-7.646-6.246-13.866-13.922-13.866s-13.922 6.22-13.922 13.866c0 2.772 0.828 5.348 2.24 7.516l-5.528-0.048c-0.004 0-0.006 0-0.010 0-0.018 0-0.030 0.008-0.046 0.010-0.106 0.004-0.21 0.026-0.31 0.062-0.026 0.010-0.052 0.016-0.076 0.026-0.012 0.006-0.026 0.006-0.038 0.012l-6.466 3.192c-0.002 0-0.002 0-0.002 0.002l-3.786 1.822c-0.042 0.018-0.084 0.042-0.126 0.070-1.51 1.004-2.024 2.978-1.196 4.59 0.44 0.858 1.19 1.49 2.112 1.778 0.356 0.11 0.718 0.166 1.078 0.166 0.58 0 1.154-0.142 1.678-0.422l2.776-1.476 4.528-2.338 2.714-0.016-10.884 10.832c-0.002 0.002-0.002 0.002-0.004 0.002l-2.678 2.666c-0.632 0.63-0.98 1.464-0.98 2.356s0.348 1.726 0.98 2.358c0.65 0.646 1.504 0.97 2.358 0.97s1.708-0.324 2.36-0.97l2.628-2.618 3.482-2.6 1.802 1.794-3.524 3.508c0 0.002-0.002 0.002-0.004 0.002l-2.678 2.666c-0.632 0.63-0.98 1.464-0.98 2.356s0.348 1.726 0.98 2.358c0.65 0.646 1.506 0.97 2.36 0.97s1.71-0.324 2.36-0.97l6.964-6.934c0.002-0.002 0.002-0.002 0.002-0.004l2.020-2-0.008-0.008c0.012-0.012 0.030-0.018 0.044-0.030l10.332-11.316 6.942 0.988c0.050 0.008 0.1 0.010 0.15 0.010 0.13 0 0.254-0.030 0.374-0.076 0.036-0.012 0.066-0.030 0.1-0.046 0.038-0.020 0.078-0.030 0.116-0.054l6.426-4.266c0.024-0.016 0.036-0.042 0.058-0.058 0.026-0.020 0.058-0.028 0.082-0.052l2.542-2.382c1.324-1.24 1.506-3.27 0.424-4.724zM4.26 35.54c-0.346 0.186-0.74 0.222-1.116 0.104-0.374-0.116-0.676-0.372-0.854-0.716-0.322-0.628-0.136-1.39 0.428-1.804l2.628-1.264 0.898 2.626-1.984 1.054zM11.256 31.884l-3.096 1.6-0.878-2.566 4.054-2.002-0.080 2.968zM41.454 18.644c0 1.836-0.438 3.57-1.198 5.118l-8.362-3.798c-0.088-1.146-0.682-2.15-1.576-2.776l2.928-9.72c4.756 1.512 8.21 5.948 8.21 11.176zM17.876 18.644c0-6.47 5.288-11.734 11.788-11.734 0.506 0 1 0.042 1.49 0.104l-2.864 9.508c-0.038-0.002-0.074-0.012-0.114-0.012-2.066 0-3.746 1.674-3.746 3.734s1.68 3.734 3.746 3.734c1.388 0 2.588-0.766 3.236-1.89l7.724 3.51c-2.15 2.892-5.59 4.78-9.474 4.78-6.5 0-11.788-5.264-11.788-11.734zM29.788 20.244c0 0.882-0.724 1.6-1.612 1.6s-1.612-0.718-1.612-1.6c0-0.882 0.724-1.6 1.612-1.6s1.612 0.718 1.612 1.6zM4.93 50.292c-0.472 0.468-1.238 0.468-1.708 0.002-0.228-0.228-0.352-0.526-0.352-0.846s0.124-0.618 0.352-0.842l1.924-1.916 1.702 1.696-1.918 1.91zM11.358 57.76c-0.472 0.468-1.238 0.47-1.71 0.002-0.228-0.228-0.352-0.526-0.352-0.846s0.124-0.618 0.352-0.842l1.926-1.918 1.704 1.696-1.92 1.91zM18.32 50.822c-0.002 0-0.002 0-0.004 0.002l-3.53 3.52-1.704-1.696 3.526-3.51c0 0 0 0 0 0s0.002-0.002 0.004-0.002c0.080-0.080 0.13-0.176 0.18-0.27 0.014-0.028 0.040-0.052 0.052-0.080 0.034-0.082 0.038-0.17 0.052-0.258 0.006-0.050 0.028-0.094 0.028-0.146 0-0.072-0.026-0.14-0.040-0.212-0.012-0.064-0.012-0.13-0.038-0.19-0.040-0.1-0.11-0.188-0.182-0.276-0.020-0.024-0.028-0.054-0.050-0.076 0 0 0 0-0.002 0s-0.002-0.004-0.002-0.004l-3.214-3.2c-0.034-0.034-0.078-0.048-0.116-0.076-0.056-0.044-0.11-0.084-0.174-0.116-0.060-0.030-0.122-0.048-0.186-0.066-0.068-0.020-0.134-0.034-0.206-0.040-0.066-0.004-0.126 0.002-0.19 0.010-0.072 0.008-0.138 0.018-0.208 0.040-0.068 0.022-0.126 0.054-0.188 0.090-0.040 0.022-0.084 0.030-0.122 0.058l-3.546 2.648-1.802-1.794 4.798-4.772 8.722 8.578-1.856 1.838zM31.958 36.788c-0.030-0.004-0.060 0.008-0.090 0.006-0.078-0.004-0.152 0.002-0.23 0.014-0.060 0.010-0.118 0.022-0.176 0.042-0.068 0.024-0.13 0.056-0.194 0.094-0.060 0.036-0.114 0.074-0.166 0.122-0.026 0.022-0.056 0.034-0.080 0.058l-9.396 10.292-8.656-8.514 5.666-5.636c0.418-0.416 0.42-1.092 0.004-1.51-0.21-0.21-0.486-0.314-0.762-0.312v-0.002l-4.438 0.026 0.056-3.214 6.208 0.054c2.53 2.588 6.058 4.202 9.962 4.202 0.874 0 1.728-0.090 2.558-0.246 0.080 0.064 0.158 0.13 0.26 0.17l4.82 1.92 0.304 1.516 0.356 1.77-6.006-0.854zM40.040 37.144l-0.626-3.116 2.892-2.16 1.894 2.514-4.16 2.762zM47.548 31.482l-1.676 1.57-1.862-2.472 1.662-1.274c0.31-0.238 0.702-0.336 1.086-0.286 0.386 0.054 0.728 0.256 0.96 0.568 0.434 0.584 0.36 1.398-0.17 1.894z"></path>
<path fill="#2e2f42" d="M27.204 37.088l-4.286-4.266c-0.414-0.414-1.090-0.414-1.506 0l-4.284 4.266c-0.2 0.202-0.314 0.472-0.314 0.756s0.112 0.556 0.314 0.756l4.284 4.266c0.208 0.206 0.482 0.31 0.754 0.31s0.546-0.104 0.752-0.31l4.286-4.266c0.2-0.2 0.314-0.472 0.314-0.756s-0.114-0.556-0.314-0.756zM22.166 40.606l-2.774-2.762 2.774-2.762 2.774 2.762-2.774 2.762z"></path>
<path fill="#2e2f42" d="M34.328 10.142l-0.516 2.072c0.142 0.036 3.476 0.904 3.476 4.298h2.134c0-4.034-3.332-5.93-5.094-6.37z"></path>
<path fill="#2e2f42" d="M39.422 18.644h-2.134v2.134h2.134v-2.134z"></path>
</svg>
<svg id="icon-clock" width="64" height="64" viewBox="0 0 64 64" x="160" y="0">
<path fill="#2e2f42" d="M62.594 30.602c-0.004-16.904-13.71-30.606-30.616-30.602s-30.606 13.71-30.602 30.616c0.002 13.316 8.614 25.102 21.298 29.152 0.122 0.038 0.248 0.058 0.374 0.058 0.242 0 0.478-0.064 0.684-0.188 0.27-0.16 0.472-0.414 0.566-0.712l7.73-24.5c2.114-0.010 3.818-1.732 3.806-3.846s-1.732-3.818-3.846-3.806c-0.568 0.002-1.13 0.134-1.64 0.382l-10.212-10.214c-0.506-0.49-1.314-0.476-1.804 0.032-0.478 0.494-0.478 1.278 0 1.772l10.206 10.218c-0.784 1.598-0.336 3.528 1.072 4.618l-7.366 23.346c-14.556-5.362-22.008-21.508-16.646-36.064s21.508-22.008 36.064-16.646c14.556 5.362 22.008 21.508 16.646 36.064-2.62 7.112-8.002 12.862-14.924 15.946l-0.796-3.748c-0.146-0.69-0.822-1.13-1.512-0.984-0.218 0.046-0.418 0.148-0.586 0.296l-7.674 6.852c-0.526 0.468-0.574 1.274-0.104 1.8 0.152 0.17 0.348 0.298 0.566 0.368l9.798 3.128c0.67 0.216 1.388-0.154 1.604-0.824 0.068-0.212 0.080-0.438 0.034-0.656l-0.782-3.678c11.328-4.776 18.684-15.884 18.658-28.178zM31.984 29.328c0.704 0 1.276 0.572 1.276 1.276s-0.572 1.276-1.276 1.276c-0.704 0-1.276-0.57-1.276-1.276s0.57-1.276 1.276-1.276zM36.186 59.056l4.368-3.896 1.206 5.68-5.574-1.784z"></path>
<path fill="#4d5ae5" d="M30.708 6.37v2.55c0 0.704 0.57 1.276 1.276 1.276s1.276-0.57 1.276-1.276v-2.55c0-0.704-0.572-1.276-1.276-1.276s-1.276 0.572-1.276 1.276z"></path>
<path fill="#4d5ae5" d="M7.752 29.328c-0.704 0-1.276 0.572-1.276 1.276s0.57 1.276 1.276 1.276h2.55c0.704 0 1.276-0.57 1.276-1.276s-0.57-1.276-1.276-1.276h-2.55z"></path>
<path fill="#4d5ae5" d="M56.216 31.878c0.704 0 1.276-0.57 1.276-1.276s-0.57-1.276-1.276-1.276h-2.55c-0.704 0-1.276 0.572-1.276 1.276s0.572 1.276 1.276 1.276h2.55z"></path>
</svg>
<svg id="icon-diagram" width="64" height="64" viewBox="0 0 64 64" x="240" y="0">
<path fill="#4d5ae5" d="M29.85 29.93h2.132v9.596h-2.132v-9.594z"></path>
<path fill="#4d5ae5" d="M38.38 34.194h2.132v5.33h-2.132v-5.33z"></path>
<path fill="#4d5ae5" d="M21.322 37.392h2.132v2.132h-2.132v-2.132z"></path>
<path fill="#4d5ae5" d="M14.926 36.326h2.132v3.198h-2.132v-3.198z"></path>
<path fill="#2e2f42" d="M3.198 56.582h51.174c1.766 0 3.198-1.432 3.198-3.198v-4.264c0-1.766-1.432-3.198-3.198-3.198h-1.066v-26.586l6.056-5.736c1.406 0.692 3.106 0.272 4.026-0.998s0.792-3.016-0.304-4.136-2.84-1.288-4.13-0.396c-1.288 0.892-1.746 2.584-1.084 4.004l-4.562 4.326v-2.46c0-1.766-1.432-3.198-3.198-3.198h-42.644c-1.766 0-3.198 1.432-3.198 3.198v31.984h-1.066c-1.766 0-3.198 1.432-3.198 3.198v4.264c0 1.766 1.432 3.198 3.198 3.198zM60.768 9.674c0.588 0 1.066 0.478 1.066 1.066s-0.478 1.066-1.066 1.066c-0.588 0-1.066-0.478-1.066-1.066s0.478-1.066 1.066-1.066zM6.396 13.938c0-0.588 0.478-1.066 1.066-1.066h42.644c0.588 0 1.066 0.478 1.066 1.066v4.478l-2.132 2.026v-4.372c0-0.588-0.478-1.066-1.066-1.066h-38.38c-0.588 0-1.066 0.478-1.066 1.066v26.652c0 0.588 0.478 1.066 1.066 1.066h38.38c0.588 0 1.066-0.478 1.066-1.066v-19.348l2.132-2.020v24.568h-44.776v-31.984zM15.992 27.798c-1.442-0.004-2.708 0.956-3.092 2.348s0.21 2.866 1.45 3.602c1.24 0.736 2.82 0.552 3.856-0.452l3.706 1.86c0.43 0.216 0.952 0.114 1.272-0.246l7.878-8.862 7.744 5.802c0.416 0.312 0.996 0.278 1.372-0.078l6.73-6.376v16.262h-36.248v-24.52h36.248v5.32l-7.542 7.144-7.808-5.854c-0.444-0.332-1.068-0.27-1.436 0.144l-7.986 8.986-2.986-1.492c0.022-0.128 0.036-0.258 0.040-0.386 0-1.766-1.432-3.198-3.198-3.198zM17.058 30.996c0 0.588-0.478 1.066-1.066 1.066s-1.066-0.478-1.066-1.066c0-0.588 0.478-1.066 1.066-1.066s1.066 0.478 1.066 1.066zM23.454 48.054h10.662v1.066c0 0.588-0.478 1.066-1.066 1.066h-8.528c-0.588 0-1.066-0.478-1.066-1.066v-1.066zM2.132 49.12c0-0.588 0.478-1.066 1.066-1.066h18.124v1.066c0 1.766 1.432 3.198 3.198 3.198h8.528c1.766 0 3.198-1.432 3.198-3.198v-1.066h18.124c0.588 0 1.066 0.478 1.066 1.066v4.264c0 0.588-0.478 1.066-1.066 1.066h-51.174c-0.588 0-1.066-0.478-1.066-1.066v-4.264z"></path>
</svg>
<svg id="icon-face" width="64" height="64" viewBox="0 0 64 64" x="320" y="0">
<path fill="#4d5ae5" d="M64 32c0 8.836-3.582 16.836-9.372 22.628s-13.79 9.372-22.628 9.372c-8.836 0-16.836-3.582-22.628-9.372s-9.372-13.79-9.372-22.628c0-8.836 3.582-16.836 9.372-22.628s13.79-9.372 22.628-9.372c8.836 0 16.836 3.582 22.628 9.372s9.372 13.79 9.372 22.628z"></path>
<path fill="#f4f4fd" d="M38.396 19.176h3.506v-6.106c-0.604-0.084-2.684-0.27-5.108-0.27-5.054 0-8.516 3.18-8.516 9.022v5.378h-5.578v6.826h5.578v17.174h6.838v-17.172h5.352l0.85-6.826h-6.204v-4.702c0.002-1.972 0.532-3.324 3.282-3.324z"></path>
</svg>
<svg id="icon-inst" width="64" height="64" viewBox="0 0 64 64" x="400" y="0">
<path fill="#4d5ae5" d="M64 32c0 8.836-3.582 16.836-9.372 22.628s-13.79 9.372-22.628 9.372c-8.836 0-16.836-3.582-22.628-9.372s-9.372-13.79-9.372-22.628c0-8.836 3.582-16.836 9.372-22.628s13.79-9.372 22.628-9.372c8.836 0 16.836 3.582 22.628 9.372s9.372 13.79 9.372 22.628z"></path>
<path fill="#f4f4fd" d="M51.162 24.090c-0.090-2.040-0.42-3.444-0.892-4.658-0.488-1.29-1.238-2.446-2.22-3.406-0.96-0.976-2.122-1.732-3.398-2.212-1.222-0.472-2.618-0.802-4.658-0.892-2.056-0.098-2.708-0.12-7.922-0.12s-5.866 0.022-7.914 0.112c-2.040 0.090-3.444 0.42-4.658 0.892-1.29 0.488-2.446 1.238-3.406 2.22-0.976 0.96-1.732 2.124-2.212 3.398-0.472 1.222-0.802 2.618-0.892 4.658-0.098 2.056-0.12 2.708-0.12 7.922s0.022 5.866 0.112 7.914c0.090 2.040 0.42 3.444 0.892 4.658 0.488 1.29 1.246 2.446 2.22 3.406 0.96 0.976 2.122 1.732 3.398 2.212 1.222 0.472 2.618 0.802 4.658 0.892 2.048 0.090 2.7 0.112 7.914 0.112s5.866-0.022 7.914-0.112c2.040-0.090 3.444-0.42 4.658-0.892 2.58-0.998 4.62-3.038 5.618-5.618 0.472-1.222 0.802-2.618 0.892-4.658 0.090-2.048 0.112-2.7 0.112-7.914s-0.008-5.866-0.098-7.914zM47.704 39.768c-0.082 1.876-0.398 2.888-0.66 3.564-0.646 1.672-1.972 3-3.646 3.646-0.676 0.262-1.696 0.578-3.564 0.66-2.026 0.090-2.632 0.112-7.756 0.112s-5.738-0.022-7.756-0.112c-1.876-0.082-2.888-0.398-3.564-0.66-0.832-0.308-1.59-0.796-2.206-1.432-0.638-0.622-1.126-1.372-1.432-2.206-0.262-0.676-0.578-1.696-0.66-3.564-0.090-2.026-0.112-2.634-0.112-7.756s0.022-5.738 0.112-7.756c0.082-1.876 0.398-2.888 0.66-3.564 0.308-0.832 0.796-1.59 1.44-2.206 0.622-0.638 1.372-1.126 2.206-1.432 0.676-0.262 1.696-0.578 3.564-0.66 2.026-0.090 2.634-0.112 7.756-0.112 5.132 0 5.738 0.022 7.756 0.112 1.876 0.082 2.888 0.398 3.564 0.66 0.832 0.308 1.59 0.794 2.206 1.432 0.638 0.622 1.126 1.372 1.432 2.206 0.262 0.676 0.578 1.696 0.66 3.564 0.090 2.026 0.112 2.632 0.112 7.756s-0.022 5.724-0.112 7.75z"></path>
<path fill="#f4f4fd" d="M32.072 22.14c-5.446 0-9.864 4.418-9.864 9.864s4.418 9.864 9.864 9.864c5.446 0 9.864-4.418 9.864-9.864s-4.418-9.864-9.864-9.864zM32.072 38.402c-3.532 0-6.398-2.866-6.398-6.398s2.866-6.398 6.398-6.398c3.534 0 6.398 2.866 6.398 6.398s-2.866 6.398-6.398 6.398z"></path>
<path fill="#f4f4fd" d="M44.628 21.75c0 1.272-1.032 2.302-2.304 2.302s-2.302-1.032-2.302-2.302c0-1.272 1.032-2.302 2.302-2.302s2.304 1.030 2.304 2.302z"></path>
</svg>
<svg id="icon-link" width="64" height="64" viewBox="0 0 64 64" x="480" y="0">
<path fill="#4d5ae5" d="M64 32c0 8.836-3.582 16.836-9.372 22.628s-13.79 9.372-22.628 9.372c-8.836 0-16.836-3.582-22.628-9.372s-9.372-13.79-9.372-22.628c0-8.836 3.582-16.836 9.372-22.628s13.79-9.372 22.628-9.372c8.836 0 16.836 3.582 22.628 9.372s9.372 13.79 9.372 22.628z"></path>
<path fill="#f4f4fd" d="M51.19 51.2v-0.002h0.010v-14.084c0-6.89-1.484-12.196-9.538-12.196-3.872 0-6.47 2.124-7.532 4.14h-0.112v-3.496h-7.636v25.636h7.952v-12.694c0-3.342 0.634-6.574 4.772-6.574 4.078 0 4.14 3.814 4.14 6.788v12.482h7.944z"></path>
<path fill="#f4f4fd" d="M13.434 25.564h7.962v25.636h-7.962v-25.636z"></path>
<path fill="#f4f4fd" d="M17.412 12.8c-2.546 0-4.612 2.066-4.612 4.612s2.066 4.654 4.612 4.654c2.546 0 4.612-2.108 4.612-4.654s-2.068-4.612-4.612-4.612v0z"></path>
</svg>
<svg id="icon-twit" width="64" height="64" viewBox="0 0 64 64" x="560" y="0">
<path fill="#4d5ae5" d="M64 32c0 8.836-3.582 16.836-9.372 22.628s-13.79 9.372-22.628 9.372c-8.836 0-16.836-3.582-22.628-9.372s-9.372-13.79-9.372-22.628c0-8.836 3.582-16.836 9.372-22.628s13.79-9.372 22.628-9.372c8.836 0 16.836 3.582 22.628 9.372s9.372 13.79 9.372 22.628z"></path>
<path fill="#f4f4fd" d="M51.2 20.094c-1.428 0.626-2.95 1.042-4.536 1.244 1.632-0.974 2.878-2.506 3.464-4.352-1.522 0.908-3.202 1.548-4.992 1.906-1.444-1.538-3.504-2.492-5.75-2.492-4.358 0-7.868 3.538-7.868 7.874 0 0.624 0.052 1.224 0.182 1.796-6.544-0.32-12.336-3.456-16.226-8.234-0.68 1.178-1.078 2.528-1.078 3.98 0 2.726 1.404 5.144 3.496 6.542-1.264-0.024-2.506-0.392-3.556-0.97 0 0.024 0 0.056 0 0.086 0 3.826 2.728 7.004 6.308 7.736-0.64 0.176-1.34 0.26-2.064 0.26-0.504 0-1.012-0.028-1.49-0.134 1.020 3.118 3.914 5.41 7.356 5.484-2.678 2.096-6.080 3.358-9.76 3.358-0.646 0-1.264-0.028-1.884-0.108 3.488 2.248 7.62 3.532 12.076 3.532 14.486 0 22.406-12 22.406-22.402 0-0.348-0.012-0.684-0.028-1.018 1.562-1.108 2.876-2.494 3.946-4.088z"></path>
</svg>
</svg>
